<svg width="229" height="287" fill="none" xmlns="http://www.w3.org/2000/svg"><path d="M69.19 177.15a12.52 12.52 0 0 0-23.25-8.94l-16.18 31.63a16.29 16.29 0 1 0 30.23 11.63l9.2-34.32Z" fill="#7562EB"/><circle cx="50.77" cy="229.59" r="7.52" transform="rotate(-23 50.77 229.6)" fill="#C3BDF5"/><path d="M54.3 218.63A18.68 18.68 0 1 0 19 230.84a18.68 18.68 0 0 0 35.3-12.2Z" fill="#C3BDF5"/><path d="M158.84 177.15a12.52 12.52 0 0 1 23.25-8.94l16.18 31.63a16.29 16.29 0 1 1-30.23 11.63l-9.2-34.32Z" fill="#7562EB"/><circle cx="7.52" cy="7.52" r="7.52" transform="scale(-1 1) rotate(-22.65 469.62 579.9)" fill="#C3BDF5"/><path d="M173.72 218.63a18.68 18.68 0 1 1 35.3 12.21 18.68 18.68 0 0 1-35.3-12.2Z" fill="#C3BDF5"/><path d="M159 222.68a9.03 9.03 0 0 0-9.03-9.03H126.5a9.03 9.03 0 0 0-9.03 9.03v58.08a5.65 5.65 0 0 0 5.64 5.64h26.86a9.03 9.03 0 0 0 9.03-9.03v-54.69Z" fill="#7562EB"/><path d="M124.22 282.06a8.2 8.2 0 1 1 16.39 0v4.34h-16.39v-4.34Z" fill="#C3BDF5"/><path d="M136.75 282.06a8.2 8.2 0 1 1 16.39 0v4.34h-16.4v-4.34Z" fill="#C3BDF5"/><path d="M149.16 282.06a8.2 8.2 0 0 1 16.4 0v4.34h-16.4v-4.34Z" fill="#C3BDF5"/><path d="M69.23 222.75a9.03 9.03 0 0 1 9.04-9.04h23.46a9.03 9.03 0 0 1 9.04 9.04v58.07a5.65 5.65 0 0 1-5.65 5.65H78.27a9.03 9.03 0 0 1-9.04-9.04v-54.68Z" fill="#7562EB"/><path d="M62.48 282.13a8.2 8.2 0 0 1 16.39 0v4.33h-16.4v-4.33Z" fill="#C3BDF5"/><path d="M75 282.13a8.2 8.2 0 0 1 16.39 0v4.33H75v-4.33Z" fill="#C3BDF5"/><path d="M87.4 282.13a8.2 8.2 0 1 1 16.39 0v4.33H87.42v-4.33Z" fill="#C3BDF5"/><ellipse cx="18.36" cy="18.1" rx="18.36" ry="18.1" transform="matrix(-1 0 0 1 140.45 43.97)" fill="#8470FF"/><ellipse cx="10.02" cy="9.88" rx="10.02" ry="9.88" transform="matrix(-1 0 0 1 110.1 52.92)" fill="#8470FF"/><path d="M94.04 69.74c-2-1.35-7.99-5.37-9.99-6.38-4.5-3.2-7.81-7.38-10.13-13.06a29.56 29.56 0 0 1-1.77-14.86v-.16c.51-4-4.82-5.86-6.83-2.37 0 0 0 .17-.17.17-8.57 14.15-7.48 33.51 1.81 47.4 1 1.67 5.15 8.03 6.3 9.7.17 0 20.78-20.44 20.78-20.44ZM154.85 90.5c2.02-3.17 6.05-9 7.9-12.16 8.23-14.15 8.3-31.84.5-45.22-1.98-3.51-7.16-1.7-6.85 2.31.97 9.68-2.08 19.68-9.6 26.16-.68.67-1.68 1.33-2.52 2-.84.5-1.67.99-2.68 1.65l-7.36 4.81 20.61 20.44Z" fill="#C3BDF5"/><path fill-rule="evenodd" clip-rule="evenodd" d="M53.8 116.13c4.83-32.89 27.23-60.25 60.59-60.11 33.36.13 55.54 27.5 60.12 60.58 2.95 21.4 7.1 45.83 9.28 67.98 4.39 42.02-27.9 76.32-70.2 76.15-42.31-.16-74.02-34.71-69.61-76.7 1.9-19.4 6.55-45.31 9.82-67.9Z" fill="#8470FF"/><path d="M114.08 249.87c-23.7-.1-42.87-16.33-42.8-36.26.09-19.94 19.37-36.02 43.08-35.93 23.72.1 42.88 16.33 42.8 36.26-.08 19.94-19.37 36.02-43.08 35.93Z" fill="#C3BDF5"/><path d="M114.2 235.18c-2.95-.02-5.34-2.04-5.33-4.53 0-2.48 2.41-4.49 5.37-4.47 2.96 0 5.35 2.03 5.34 4.52-.01 2.48-2.42 4.49-5.38 4.48Z" fill="#8470FF"/><path d="M94.23 139.89a20.05 20.05 0 1 1 .15-40.1 20.05 20.05 0 0 1-.15 40.1Z" fill="#fff"/><path d="M134.06 140.5a20.05 20.05 0 1 1 .16-40.1 20.05 20.05 0 0 1-.16 40.1Z" fill="#fff"/><circle cx="99.06" cy="120.28" r="4.25" fill="#14274D"/><circle cx="129.39" cy="120.28" r="4.25" fill="#14274D"/><path d="M119.04 144.51a7.68 7.68 0 0 0 7.68 7.68H128a7.68 7.68 0 0 0 7.68-7.68h-16.64Z" fill="#fff"/><rect width="23.34" height="7.94" rx="3.97" transform="matrix(-.97 -.23 -.23 .97 146.58 80.64)" fill="#5040B4"/><rect x="81.28" y="80.64" width="23.34" height="7.94" rx="3.97" transform="rotate(-14 81.28 80.64)" fill="#5040B4"/><path d="m175.99 126.3-61.77 8.52-61.76-8.52v24.9h123.53v-24.9Z" fill="#8470FF"/><path d="M114.2 151.75a13.15 13.15 0 0 0 26.3 0v-4.91a2.33 2.33 0 0 0-2.32-2.33h-21.64a2.33 2.33 0 0 0-2.34 2.33v4.9Z" fill="#14274D"/><path fill-rule="evenodd" clip-rule="evenodd" d="M137.18 160.5a13.12 13.12 0 0 0-19.64 0 13.12 13.12 0 0 0 19.64 0Z" fill="#FEB5FF"/><ellipse cx="114.21" cy="131.32" rx="10.16" ry="9.25" fill="#C3BDF5"/></svg>